<mxfile host="Electron" agent="Mozilla/5.0 (Windows NT 10.0; Win64; x64) AppleWebKit/537.36 (KHTML, like Gecko) draw.io/24.7.8 Chrome/128.0.6613.36 Electron/32.0.1 Safari/537.36" version="24.7.8">
  <diagram name="Page-1" id="31QB1v_mqNI5mOlYlD-y">
    <mxGraphModel dx="1434" dy="891" grid="1" gridSize="10" guides="1" tooltips="1" connect="1" arrows="1" fold="1" page="1" pageScale="1" pageWidth="850" pageHeight="1100" math="0" shadow="0">
      <root>
        <mxCell id="0" />
        <mxCell id="1" parent="0" />
        <mxCell id="TX6Ag44tq4ehKoy0bHKY-4" style="edgeStyle=orthogonalEdgeStyle;rounded=0;orthogonalLoop=1;jettySize=auto;html=1;entryX=0;entryY=0.5;entryDx=0;entryDy=0;" edge="1" parent="1" source="jHRryZpSAA9MjvkaloiL-1" target="TX6Ag44tq4ehKoy0bHKY-3">
          <mxGeometry relative="1" as="geometry" />
        </mxCell>
        <mxCell id="jHRryZpSAA9MjvkaloiL-1" value="start" style="ellipse;whiteSpace=wrap;html=1;aspect=fixed;" parent="1" vertex="1">
          <mxGeometry x="10" y="30" width="80" height="80" as="geometry" />
        </mxCell>
        <mxCell id="TX6Ag44tq4ehKoy0bHKY-6" value="" style="edgeStyle=orthogonalEdgeStyle;rounded=0;orthogonalLoop=1;jettySize=auto;html=1;" edge="1" parent="1" source="TX6Ag44tq4ehKoy0bHKY-3" target="TX6Ag44tq4ehKoy0bHKY-5">
          <mxGeometry relative="1" as="geometry" />
        </mxCell>
        <mxCell id="TX6Ag44tq4ehKoy0bHKY-3" value="arr = [0, 2, 1, 2, 0]" style="shape=parallelogram;perimeter=parallelogramPerimeter;whiteSpace=wrap;html=1;fixedSize=1;" vertex="1" parent="1">
          <mxGeometry x="210" y="40" width="120" height="60" as="geometry" />
        </mxCell>
        <mxCell id="TX6Ag44tq4ehKoy0bHKY-5" value="sorted = arr[:]" style="whiteSpace=wrap;html=1;" vertex="1" parent="1">
          <mxGeometry x="410" y="40" width="120" height="60" as="geometry" />
        </mxCell>
        <mxCell id="TX6Ag44tq4ehKoy0bHKY-10" style="edgeStyle=orthogonalEdgeStyle;rounded=0;orthogonalLoop=1;jettySize=auto;html=1;entryX=-0.012;entryY=0.588;entryDx=0;entryDy=0;entryPerimeter=0;" edge="1" parent="1" source="TX6Ag44tq4ehKoy0bHKY-5">
          <mxGeometry relative="1" as="geometry">
            <mxPoint x="689.04" y="97.03999999999996" as="targetPoint" />
          </mxGeometry>
        </mxCell>
      </root>
    </mxGraphModel>
  </diagram>
</mxfile>
